<svg xmlns="http://www.w3.org/2000/svg" xmlns:xlink="http://www.w3.org/1999/xlink" width="2000" zoomAndPan="magnify" viewBox="0 0 1500 1499.999933" height="2000" preserveAspectRatio="xMidYMid meet" version="1.0"><defs><clipPath id="a7cc1d25fd"><path d="M 458 429 L 1081.808594 429 L 1081.808594 897.839844 L 458 897.839844 Z M 458 429 " clip-rule="nonzero"/></clipPath><clipPath id="6a8a48bac3"><path d="M 543 330.089844 L 1081.808594 330.089844 L 1081.808594 849 L 543 849 Z M 543 330.089844 " clip-rule="nonzero"/></clipPath><clipPath id="4b772edd26"><path d="M 430.058594 330.089844 L 997 330.089844 L 997 897.839844 L 430.058594 897.839844 Z M 430.058594 330.089844 " clip-rule="nonzero"/></clipPath></defs><rect x="-150" width="1800" fill="#ffffff" y="-149.999993" height="1799.99992" fill-opacity="1"/><rect x="-150" width="1800" fill="#ffffff" y="-149.999993" height="1799.99992" fill-opacity="1"/><g clip-path="url(#a7cc1d25fd)"><path fill="#231f20" d="M 1043.683594 897.542969 L 468.183594 897.542969 C 464.730469 897.542969 461.542969 895.699219 459.820312 892.714844 C 458.09375 889.726562 458.09375 886.042969 459.820312 883.054688 L 719.105469 433.847656 C 720.828125 430.859375 724.015625 429.019531 727.46875 429.019531 C 730.917969 429.019531 734.109375 430.859375 735.832031 433.847656 L 764.296875 483.164062 C 766.023438 486.152344 766.023438 489.835938 764.296875 492.824219 L 570.304688 828.90625 L 1072.152344 828.90625 C 1075.601562 828.90625 1078.789062 830.75 1080.511719 833.734375 C 1082.238281 836.722656 1082.238281 840.40625 1080.511719 843.394531 L 1052.046875 892.714844 C 1050.324219 895.699219 1047.136719 897.542969 1043.683594 897.542969 Z M 484.910156 878.226562 L 1038.109375 878.226562 L 1055.425781 848.222656 L 553.578125 848.222656 C 550.128906 848.222656 546.941406 846.382812 545.21875 843.394531 C 543.492188 840.40625 543.492188 836.722656 545.21875 833.734375 L 744.785156 487.992188 L 727.46875 457.996094 Z M 484.910156 878.226562 " fill-opacity="1" fill-rule="nonzero"/></g><g clip-path="url(#6a8a48bac3)"><path fill="#231f20" d="M 1072.152344 848.222656 L 553.578125 848.222656 C 550.128906 848.222656 546.941406 846.382812 545.21875 843.394531 C 543.492188 840.40625 543.492188 836.722656 545.21875 833.734375 L 573.683594 784.417969 C 575.40625 781.429688 578.59375 779.585938 582.046875 779.585938 L 970.027344 779.585938 L 719.105469 344.875 C 717.382812 341.886719 717.382812 338.203125 719.105469 335.214844 C 720.828125 332.230469 724.015625 330.386719 727.46875 330.386719 L 784.398438 330.386719 C 787.851562 330.386719 791.039062 332.230469 792.761719 335.214844 L 1080.511719 833.734375 C 1082.238281 836.722656 1082.238281 840.40625 1080.511719 843.394531 C 1078.789062 846.382812 1075.601562 848.222656 1072.152344 848.222656 Z M 570.304688 828.90625 L 1055.425781 828.90625 L 778.824219 349.703125 L 744.195312 349.703125 L 995.117188 784.417969 C 996.84375 787.402344 996.84375 791.089844 995.117188 794.074219 C 993.394531 797.0625 990.207031 798.90625 986.753906 798.90625 L 587.621094 798.90625 Z M 570.304688 828.90625 " fill-opacity="1" fill-rule="nonzero"/></g><path fill="#17d8e2" d="M 986.753906 789.25 L 727.46875 340.046875 L 439.714844 838.566406 L 468.183594 887.882812 L 727.46875 438.679688 L 929.820312 789.25 Z M 986.753906 789.25 " fill-opacity="1" fill-rule="nonzero"/><g clip-path="url(#4b772edd26)"><path fill="#231f20" d="M 468.183594 897.542969 C 464.730469 897.542969 461.542969 895.699219 459.820312 892.714844 L 431.355469 843.394531 C 429.628906 840.40625 429.628906 836.722656 431.355469 833.734375 L 719.105469 335.214844 C 720.828125 332.230469 724.015625 330.386719 727.46875 330.386719 C 730.921875 330.386719 734.109375 332.230469 735.832031 335.214844 L 995.117188 784.417969 C 996.84375 787.402344 996.84375 791.089844 995.117188 794.074219 C 993.394531 797.0625 990.207031 798.90625 986.753906 798.90625 L 929.820312 798.90625 C 926.371094 798.90625 923.183594 797.0625 921.460938 794.074219 L 727.46875 457.996094 L 476.542969 892.714844 C 474.820312 895.699219 471.632812 897.542969 468.183594 897.542969 Z M 450.867188 838.566406 L 468.183594 868.566406 L 719.105469 433.847656 C 720.828125 430.859375 724.015625 429.019531 727.46875 429.019531 C 730.921875 429.019531 734.109375 430.859375 735.832031 433.847656 L 935.398438 779.585938 L 970.027344 779.585938 L 727.46875 359.363281 Z M 450.867188 838.566406 " fill-opacity="1" fill-rule="nonzero"/></g></svg>